<svg width="3029" height="823" viewBox="0 0 3029 823" fill="none" xmlns="http://www.w3.org/2000/svg">
<path d="M1402.34 277.324V312.73C1410.83 302.034 1420.99 292.261 1432.8 283.409C1444.99 274.558 1460.5 270.132 1479.33 270.132C1498.9 270.132 1516.62 274.742 1532.5 283.963C1548.38 292.814 1560.75 306.276 1569.61 324.348C1580.69 309.226 1593.61 296.502 1608.38 286.175C1623.15 275.48 1640.32 270.132 1659.89 270.132C1678.72 270.132 1695.89 274.558 1711.4 283.409C1726.91 291.892 1739.28 304.616 1748.51 321.582C1758.11 338.547 1762.91 359.754 1762.91 385.202V556.702H1692.57L1692.02 394.607C1692.02 375.798 1687.03 361.783 1677.06 352.562C1667.46 343.342 1654.72 338.732 1638.84 338.732C1626.66 338.732 1616.14 342.604 1607.27 350.349C1598.41 357.726 1590.1 366.577 1582.35 376.904V556.702H1512.01L1511.45 394.607C1511.45 375.798 1506.47 361.783 1496.5 352.562C1486.9 343.342 1474.34 338.732 1458.84 338.732C1447.02 338.732 1436.5 342.42 1427.27 349.796C1418.03 356.804 1409.73 365.102 1402.34 374.691V556.702H1332V277.324H1402.34Z" fill="#13181D"/>
<path d="M1968.38 270.132C1995.71 270.132 2020.63 276.771 2043.16 290.048C2065.68 302.957 2083.77 320.66 2097.43 343.157C2111.47 365.286 2118.48 390.181 2118.48 417.843C2118.48 445.504 2111.47 470.399 2097.43 492.528C2083.77 514.657 2065.68 532.36 2043.16 545.637C2020.63 558.546 1995.71 565 1968.38 565C1941.43 565 1916.5 558.546 1893.61 545.637C1871.09 532.36 1852.99 514.657 1839.33 492.528C1825.67 470.399 1818.84 445.504 1818.84 417.843C1818.84 390.181 1825.67 365.286 1839.33 343.157C1852.99 320.66 1871.09 302.957 1893.61 290.048C1916.5 276.771 1941.43 270.132 1968.38 270.132ZM1968.38 338.178C1955.09 338.178 1942.72 341.313 1931.27 347.583C1919.83 353.853 1910.6 362.889 1903.58 374.691C1896.93 386.493 1893.61 400.877 1893.61 417.843C1893.61 434.808 1896.93 449.192 1903.58 460.994C1910.6 472.796 1919.83 481.832 1931.27 488.102C1942.72 494.003 1955.09 496.954 1968.38 496.954C1981.68 496.954 1994.05 494.003 2005.49 488.102C2016.94 481.832 2026.17 472.796 2033.19 460.994C2040.2 449.192 2043.71 434.808 2043.71 417.843C2043.71 400.877 2040.2 386.493 2033.19 374.691C2026.17 362.889 2016.94 353.853 2005.49 347.583C1994.05 341.313 1981.68 338.178 1968.38 338.178Z" fill="#13181D"/>
<path d="M2250.29 277.324V317.156C2258.78 305.723 2270.23 295.027 2284.63 285.069C2299.4 275.111 2316.2 270.132 2335.03 270.132C2363.46 270.132 2387.28 279.721 2406.48 298.9C2425.68 318.078 2435.28 346.846 2435.28 385.202V556.702H2364.94L2364.39 394.607C2364.39 375.798 2359.77 361.783 2350.54 352.562C2341.68 343.342 2329.31 338.732 2313.43 338.732C2300.87 338.732 2289.06 342.789 2277.98 350.903C2267.27 359.017 2258.04 368.606 2250.29 379.67V556.702H2179.95V277.324H2250.29Z" fill="#13181D"/>
<path d="M2604.2 196V277.324H2681.74V335.966H2604.2V456.568C2604.2 469.108 2606.97 479.066 2612.5 486.442C2618.41 493.45 2627.09 496.954 2638.54 496.954C2648.51 496.954 2657 495.847 2664.01 493.634C2671.4 491.421 2678.23 488.286 2684.51 484.229V540.105C2677.49 547.112 2668.63 553.014 2657.92 557.808C2647.58 562.603 2634.47 565 2618.6 565C2593.49 565 2572.99 557.07 2557.12 541.211C2541.61 524.984 2533.85 502.855 2533.85 474.825V335.966H2483.45V300.006C2501.18 293.736 2517.42 281.934 2532.19 264.6C2547.33 247.265 2559.33 224.399 2568.19 196H2604.2Z" fill="#13181D"/>
<path d="M2878.9 270.132C2906.23 270.132 2931.15 276.771 2953.67 290.048C2976.2 302.957 2994.29 320.66 3007.95 343.157C3021.98 365.286 3029 390.181 3029 417.843C3029 445.504 3021.98 470.399 3007.95 492.528C2994.29 514.657 2976.2 532.36 2953.67 545.637C2931.15 558.546 2906.23 565 2878.9 565C2851.95 565 2827.02 558.546 2804.13 545.637C2781.6 532.36 2763.51 514.657 2749.85 492.528C2736.19 470.399 2729.36 445.504 2729.36 417.843C2729.36 390.181 2736.19 365.286 2749.85 343.157C2763.51 320.66 2781.6 302.957 2804.13 290.048C2827.02 276.771 2851.95 270.132 2878.9 270.132ZM2878.9 338.178C2865.61 338.178 2853.24 341.313 2841.79 347.583C2830.34 353.853 2821.11 362.889 2814.1 374.691C2807.45 386.493 2804.13 400.877 2804.13 417.843C2804.13 434.808 2807.45 449.192 2814.1 460.994C2821.11 472.796 2830.34 481.832 2841.79 488.102C2853.24 494.003 2865.61 496.954 2878.9 496.954C2892.19 496.954 2904.56 494.003 2916.01 488.102C2927.46 481.832 2936.69 472.796 2943.7 460.994C2950.72 449.192 2954.23 434.808 2954.23 417.843C2954.23 400.877 2950.72 386.493 2943.7 374.691C2936.69 362.889 2927.46 353.853 2916.01 347.583C2904.56 341.313 2892.19 338.178 2878.9 338.178Z" fill="#13181D"/>
<path d="M758.63 411.152C758.63 603.059 603.059 758.63 411.152 758.63C219.245 758.63 63.674 603.059 63.674 411.152C63.674 219.245 219.245 63.6738 411.152 63.6738C603.059 63.6738 758.63 219.245 758.63 411.152Z" fill="#455B6C"/>
<path fill-rule="evenodd" clip-rule="evenodd" d="M822.304 411.152C822.304 638.225 638.225 822.304 411.152 822.304C184.079 822.304 0 638.225 0 411.152C0 184.079 184.079 0 411.152 0C638.225 0 822.304 184.079 822.304 411.152ZM411.152 758.63C603.059 758.63 758.63 603.059 758.63 411.152C758.63 219.245 603.059 63.674 411.152 63.674C219.245 63.674 63.674 219.245 63.674 411.152C63.674 603.059 219.245 758.63 411.152 758.63Z" fill="#EF6F85"/>
<circle cx="729.522" cy="411.152" r="347.478" fill="#538991"/>
<circle cx="411.152" cy="411.152" r="347.478" fill="#455B6C"/>
</svg>
